Coordinates
version=1
nRows=7
nColumns=40
inDegrees=yes

Units are S.I. units (second, meters, Newtons, ...)
If the header above contains a line with 'inDegrees', this indicates whether rotational values are in degrees (yes) or radians (no).

endheader
time	pelvis_tilt	pelvis_list	pelvis_rotation	pelvis_tx	pelvis_ty	pelvis_tz	hip_flexion_r	hip_adduction_r	hip_rotation_r	knee_angle_r	knee_angle_r_beta	ankle_angle_r	subtalar_angle_r	mtp_angle_r	hip_flexion_l	hip_adduction_l	hip_rotation_l	knee_angle_l	knee_angle_l_beta	ankle_angle_l	subtalar_angle_l	mtp_angle_l	lumbar_extension	lumbar_bending	lumbar_rotation	arm_flex_r	arm_add_r	arm_rot_r	elbow_flex_r	pro_sup_r	wrist_flex_r	wrist_dev_r	arm_flex_l	arm_add_l	arm_rot_l	elbow_flex_l	pro_sup_l	wrist_flex_l	wrist_dev_l
      6.40000000	     34.75800413	      0.62816841	   -178.36908524	      0.41387199	      0.65300124	     -0.60236777	     94.10404477	    -13.16308575	      5.13203625	     71.04230678	      1.23992216	     17.35418997	      0.00000000	      0.00000000	     94.82967221	    -15.51542319	      1.57606506	     71.07018999	      1.24040882	     14.74859328	      0.00000000	      0.00000000	    -42.72962468	     -4.17051599	      3.12521348	     59.18458775	    -21.33252597	     35.71918068	     25.21525218	     77.41994038	      0.00000000	      0.00000000	     67.38286297	     -0.94209607	     11.63688827	     13.75196037	     22.68753333	      0.00000000	      0.00000000
      6.40500000	     34.74148257	      0.72345669	   -178.39723273	      0.41386851	      0.65335130	     -0.60228636	     94.01283943	    -13.12042327	      5.03676040	     70.94950158	      1.23830241	     17.36902058	      0.00000000	      0.00000000	     94.82336786	    -15.53969193	      1.67743003	     71.03436452	      1.23978354	     14.80261558	      0.00000000	      0.00000000	    -42.75701381	     -4.09677744	      3.22863430	     59.03437762	    -21.16241703	     34.89907373	     25.30580429	     75.86862500	      0.00000000	      0.00000000	     67.34222331	     -0.95535034	     11.69869575	     13.68997943	     25.22717108	      0.00000000	      0.00000000
      6.41000000	     34.68925410	      0.52113714	   -178.40338369	      0.41376354	      0.65390942	     -0.60238544	     93.95466430	    -13.08146626	      5.26360632	     70.87054028	      1.23692427	     17.46543921	      0.00000000	      0.00000000	     94.57654361	    -15.56356590	      1.38215071	     70.86979382	      1.23691124	     14.94809991	      0.00000000	      0.00000000	    -42.84052760	     -4.34097447	      3.14029645	     58.48227459	    -20.42816596	     31.95853688	     25.38441215	     70.29526264	      0.00000000	      0.00000000	     67.56350147	     -1.02629661	     12.75126710	     13.15635142	     28.52818308	      0.00000000	      0.00000000
      6.41500000	     34.80480508	      0.70354930	   -178.41891658	      0.41391219	      0.65408138	     -0.60212383	     93.96276182	    -13.03609505	      5.12321483	     70.73478645	      1.23455492	     17.23106429	      0.00000000	      0.00000000	     94.75929808	    -15.51327695	      1.64769655	     70.79727717	      1.23564559	     14.58663201	      0.00000000	      0.00000000	    -42.70633655	     -4.11981235	      3.21504624	     59.38972641	    -21.56533259	     36.81341946	     25.35320447	     76.48086026	      0.00000000	      0.00000000	     67.46047764	     -0.89723937	     11.28117597	     13.46387240	     27.11284080	      0.00000000	      0.00000000
      6.42000000	     34.75434952	      0.75887044	   -178.39618259	      0.41385862	      0.65469005	     -0.60196851	     93.83038512	    -13.08002585	      5.01661658	     70.63454364	      1.23280535	     17.11862893	      0.00000000	      0.00000000	     94.65431667	    -15.48017483	      1.68372255	     70.66875249	      1.23340241	     14.46055268	      0.00000000	      0.00000000	    -42.79459026	     -4.03197449	      3.20854013	     59.66158249	    -21.60774334	     37.50323927	     25.18029591	     76.94678490	      0.00000000	      0.00000000	     67.55874362	     -0.78957638	     10.51844107	     13.42334484	     26.82044317	      0.00000000	      0.00000000
      6.42500000	     34.76556717	      0.73336486	   -178.37668612	      0.41393325	      0.65520770	     -0.60185710	     93.76205815	    -13.02513760	      5.12920235	     70.46651003	      1.22987261	     16.96496110	      0.00000000	      0.00000000	     94.58275706	    -15.42855211	      1.65673818	     70.52259122	      1.23085141	     14.23365453	      0.00000000	      0.00000000	    -42.81141117	     -4.05120080	      3.19641446	     59.55596746	    -21.32723053	     36.38165095	     25.05828966	     76.22658331	      0.00000000	      0.00000000	     67.67176542	     -0.79992370	     10.99142902	     13.25627862	     27.29982851	      0.00000000	      0.00000000
      6.43000000	     35.13917586	      0.89855431	   -178.31075314	      0.41408093	      0.65517943	     -0.60148635	     93.98361209	    -13.03680422	      5.05221383	     70.23870801	      1.22589672	     17.26311107	      0.00000000	      0.00000000	     94.91491369	    -15.22603998	      1.95588704	     70.28925806	      1.22677898	     14.54007273	      0.00000000	      0.00000000	    -42.40704383	     -3.84748233	      3.27132220	     59.27961842	    -21.05344815	     35.25315591	     25.12580953	     73.60999596	      0.00000000	      0.00000000	     67.04527592	     -1.00920055	     11.19565128	     14.29990723	     28.50647220	      0.00000000	      0.00000000
